<?xml version="1.0" encoding="utf-8"?>
<!-- Generator: Adobe Illustrator 25.0.1, SVG Export Plug-In . SVG Version: 6.00 Build 0)  -->
<svg version="1.1" id="Capa_1" xmlns="http://www.w3.org/2000/svg" xmlns:xlink="http://www.w3.org/1999/xlink" x="0px" y="0px"
	 viewBox="0 0 512 512" style="enable-background:new 0 0 512 512;" xml:space="preserve">
<style type="text/css">
	.st0{fill:url(#SVGID_1_);}
	.st1{fill:url(#SVGID_2_);}
	.st2{fill:url(#SVGID_3_);}
</style>
<g>
	<linearGradient id="SVGID_1_" gradientUnits="userSpaceOnUse" x1="192.0275" y1="511.7999" x2="192.0275" y2="14.2314">
		<stop  offset="0" style="stop-color:#00783F"/>
		<stop  offset="1" style="stop-color:#43AA34"/>
	</linearGradient>
	<path class="st0" d="M68.1,288c-5.4,0-9.6,0-13.8,0c-7.7,0-13.8-3.1-17.3-10c-3.6-7.1-2.5-14,2.3-20.3C59,231.9,78.7,206,98.4,180
		c1.3-1.8,2.6-3.6,4.5-6.3c-5.4,0-9.9,0-14.4,0c-7.5-0.1-13.3-3.2-16.7-9.9c-3.6-6.9-2.7-13.7,1.9-19.8c34.5-45.5,69-91,103.6-136.3
		c8.3-10.8,21.9-10.1,30.5,1.2c32.5,42.7,64.9,85.4,97.4,128.2c2.1,2.7,4.3,5.4,6.1,8.2c7.9,12.1,0,27.6-14.4,28.4
		c-4.9,0.3-9.8,0-15.8,0c3.2,4.2,5.6,7.5,8.1,10.8c18.3,24.1,36.6,48.2,55,72.2c5.1,6.6,6.9,13.6,3,21.2c-3.7,7.4-10.3,10.3-18.4,10
		c-3.9-0.1-7.8,0-12.7,0c1.6,2.3,2.6,3.8,3.7,5.3c19.7,25.9,39.3,51.8,59,77.7c3.9,5.1,6.2,10.5,4.6,17c-2.2,9-9.2,14.2-19.4,14.3
		c-39.8,0-79.6,0-119.3,0c-2.1,0-4.1,0-6.9,0c0,2.4,0,4.4,0,6.4c0,27.4,0,54.8,0,82.2c0,14-7.1,21-21.1,21c-16.6,0-33.1,0-49.7,0
		c-13.3,0-20.6-7.3-20.6-20.4c0-27.4,0-54.8,0-82.2c0-2.1,0-4.1,0-7c-2.3,0-4.3,0-6.3,0c-39.4,0-78.8-0.1-118.2,0.1
		c-8.5,0-15.5-2.1-19.6-10c-4.3-8.2-1.7-15.3,3.6-22.1c19.6-25.5,38.9-51.2,58.4-76.8C65.4,291.9,66.4,290.4,68.1,288z"/>
	<linearGradient id="SVGID_2_" gradientUnits="userSpaceOnUse" x1="392.5457" y1="511.8725" x2="392.5457" y2="14.304">
		<stop  offset="0" style="stop-color:#00783F"/>
		<stop  offset="1" style="stop-color:#43AA34"/>
	</linearGradient>
	<path class="st1" d="M273.3,49.7c10.9-14.3,21.3-28.6,32.4-42.4c8.1-10.1,22-8.9,30.3,2c22.8,30,45.6,60,68.4,90
		c10.9,14.4,21.8,28.8,32.8,43.2c5.1,6.6,7,13.6,3.1,21.2c-3.9,7.7-10.6,10.4-18.9,10.1c-3.7-0.1-7.5,0-12.5,0
		c5.6,7.4,10.4,13.8,15.3,20.2c15.8,20.8,31.5,41.6,47.4,62.2c5.2,6.8,7.4,13.8,3.4,21.7c-3.8,7.6-10.6,10.4-19,10.1
		c-3.7-0.1-7.5,0-12.1,0c1.6,2.3,2.6,3.8,3.7,5.3c19.7,25.9,39.3,51.8,59.1,77.7c4.1,5.4,6.4,11.2,4.3,18c-2.3,7.5-8.4,13-16.2,13
		c-28.5,0.2-57.1,0.1-85.7,0.1c-0.3,0-0.7-0.3-0.5-0.2c0.9-6.9,2.4-13.6,2.4-20.4c-0.1-10.2-4.2-19.1-10.4-27.2
		c-13-16.9-25.8-33.9-39-51.3c7.3-6.7,12.3-14.7,14.1-24.4c2.5-13.6-0.3-26.1-8.8-37.2c-13.2-17.4-26.5-34.9-39.7-52.3
		c2.5-3.2,5.2-6.1,7.4-9.4c10.6-15.6,9.5-36.6-2.7-52.8c-18.2-24.1-36.6-48.2-54.9-72.3C275.9,53.3,274.8,51.7,273.3,49.7z"/>
	<linearGradient id="SVGID_3_" gradientUnits="userSpaceOnUse" x1="319.95" y1="511.8725" x2="319.95" y2="14.304">
		<stop  offset="0" style="stop-color:#00783F"/>
		<stop  offset="1" style="stop-color:#43AA34"/>
	</linearGradient>
	<path class="st2" d="M365.6,430.1c0,21.9,0.2,43.4-0.1,64.9c-0.1,9.4-8.1,16.8-17.6,16.9c-18.6,0.2-37.3,0.2-55.9,0
		c-9.5-0.1-17.4-7.6-17.6-16.9c-0.3-21.5-0.1-43-0.1-64.8C304.7,430.1,334.9,430.1,365.6,430.1z"/>
</g>
</svg>
