<?xml version="1.0" encoding="utf-8"?>
<!-- Generator: Adobe Illustrator 25.0.1, SVG Export Plug-In . SVG Version: 6.00 Build 0)  -->
<svg version="1.1" id="Capa_1" xmlns="http://www.w3.org/2000/svg" xmlns:xlink="http://www.w3.org/1999/xlink" x="0px" y="0px"
	 viewBox="0 0 512 512" style="enable-background:new 0 0 512 512;" xml:space="preserve">
<style type="text/css">
	.st0{fill:url(#SVGID_1_);}
	.st1{fill:url(#SVGID_2_);}
	.st2{fill:url(#SVGID_3_);}
	.st3{fill:url(#SVGID_4_);}
</style>
<g>
	<linearGradient id="SVGID_1_" gradientUnits="userSpaceOnUse" x1="256.0066" y1="511" x2="256.0066" y2="8.9751">
		<stop  offset="0" style="stop-color:#00783F"/>
		<stop  offset="1" style="stop-color:#43AA34"/>
	</linearGradient>
	<path class="st0" d="M511.4,227.1c-0.8,7.7-2.6,15.3-5,22.7c-14.1,43.7-43.7,70.8-88.2,81.6c-1,0.2-2.1,0.3-3.6,0.4
		c-0.2,0-0.4-0.1-0.4-0.4c0-9.6,0-18.9,0-28.2c0-12.2-1.8-24.2-6.2-35.7c-24.8-64.6-108.2-80.3-155.2-29.2c-0.9,1-1.9,2-2.8,3.1
		c-0.1,0.1-0.4,0.2-0.5,0c-3.9-3.8-7.5-7.7-11.6-11.1c-27.9-22.9-59.3-29.1-93-16.3c-34,12.9-54,38.5-59,74.7
		c-1.7,12.1-0.8,24.6-1,36.9c0,1.8,0,3.6,0,5.9c0,0.2-0.2,0.4-0.4,0.4c-31.6-7.3-55.3-24.3-71.1-52c-6.7-11.8-10.9-24.6-12.5-38.1
		l0,0c-0.5-4-0.9-10.4-0.9-14.4v-1c0-3.1,0.4-8.1,0.9-11.1l0,0c6.8-42.5,30.3-71.6,70.7-86.1c11.3-4.1,23.7-5.1,36.2-7.6
		c0.1,0,0.3-0.1,0.3-0.3c0.1-0.7,0.4-2.3,0.7-3.9c10.7-54.6,42.3-91.3,94.5-109.9c8.9-3.2,18.4-4.5,27.8-6.3c3.3-0.6,6.6-0.9,10-0.9
		h8.8c3.4,0,8.8,0.4,12.2,0.9l0,0c57.6,8.1,96.8,39.3,117.5,93.6c1.4,3.7,3,4.5,6.8,4.3c55.6-3.6,106.1,32.4,120.8,86.1
		c1.9,6.9,3.6,14,4.3,21.1C512.2,213.3,512.2,220.2,511.4,227.1z"/>
	<linearGradient id="SVGID_2_" gradientUnits="userSpaceOnUse" x1="443.7188" y1="511" x2="443.7188" y2="8.9751">
		<stop  offset="0" style="stop-color:#00783F"/>
		<stop  offset="1" style="stop-color:#43AA34"/>
	</linearGradient>
	<path class="st1" d="M394.6,511.7c0.2-6.6,0-13.3,0.7-19.9c1.3-12.1,7.4-21.5,17.4-28.4c13.4-9.3,26.9-18.5,40.3-27.7
		c9.2-6.3,11.9-13.8,8.3-22.5c-3.5-8.3-12.1-12.8-21.2-11.3c-8.8,1.5-15.1,9.5-15.4,19.5c-0.1,2.3,0,4.6,0,7.4c-9.9,0-19.6,0-29.3,0
		c-4.2-27.4,13.9-51.9,39.6-56.3c18.9-3.2,35.1,2.6,47,17.7s14,32,6.3,49.7c-3.4,7.8-9,13.9-16,18.8c-10.7,7.4-21.3,14.7-33.1,22.8
		c18.3,0,35.5,0,53.2,0c0,10.4,0,20.3,0,30.2C459.8,511.7,427.2,511.7,394.6,511.7z"/>
	<linearGradient id="SVGID_3_" gradientUnits="userSpaceOnUse" x1="321.4576" y1="511" x2="321.4576" y2="8.9751">
		<stop  offset="0" style="stop-color:#00783F"/>
		<stop  offset="1" style="stop-color:#43AA34"/>
	</linearGradient>
	<path class="st2" d="M260,290.2c3.7-31,32.3-53.2,64.8-52.2c29.8,0.9,57.1,25.7,58.7,55.7c1.5,28.7,0.5,57.5,0.5,86.3
		c0,3.1-0.7,6.3-1.3,9.4c-6.5,30.5-36.2,52.4-66.5,49.1c-32.6-3.5-57.1-29.7-57.4-61.6C258.6,364,258.1,305.9,260,290.2z
		 M288.7,338.3c0,12.5-0.6,25,0.2,37.4c0.4,6.2,2.3,12.9,5.5,18.2c7.2,12.3,22.4,17.4,36.1,13.5c14.1-4.1,23.5-16.5,23.7-32.1
		c0.2-14.3,0.1-28.6,0.1-42.9c0-10.5,0.2-21-0.1-31.5c-0.6-19.3-14.8-33.2-33.5-32.9c-18,0.2-32,14.9-32.1,33.8
		C288.6,314,288.7,326.1,288.7,338.3z"/>
	<linearGradient id="SVGID_4_" gradientUnits="userSpaceOnUse" x1="177.6423" y1="511" x2="177.6423" y2="8.9751">
		<stop  offset="0" style="stop-color:#00783F"/>
		<stop  offset="1" style="stop-color:#43AA34"/>
	</linearGradient>
	<path class="st3" d="M239.9,300.6c-10.1,0-19.5,0-29.4,0c-0.3-2.3-0.5-4.4-0.9-6.5c-3.1-16.1-18.3-27.4-35.2-26
		c-15.7,1.2-29.3,14.9-29.5,30.7c-0.4,26.3-0.3,52.6,0,78.9c0.2,16.6,14.4,30.3,31.2,31.1c16.6,0.7,31.4-11.6,33.7-27.9
		c0.2-1.5,0.5-2.9,0.7-4.6c9.7,0,19.3,0,30.2,0c-1.2,6.4-1.8,12.9-3.7,18.9c-9.4,29.8-38.9,47.5-70.3,42.7
		c-29.2-4.5-51.8-31.1-52-61.4c-0.1-25.6-0.2-51.3,0-76.9c0.3-32.9,27.7-60.8,60.1-61.5c34.8-0.8,63.2,24.9,65.1,58.9
		C240.2,298,240,299.1,239.9,300.6z"/>
</g>
</svg>
