<?xml version="1.0" encoding="utf-8"?>
<!-- Generator: Adobe Illustrator 25.0.1, SVG Export Plug-In . SVG Version: 6.00 Build 0)  -->
<svg version="1.1" id="Capa_1" xmlns="http://www.w3.org/2000/svg" xmlns:xlink="http://www.w3.org/1999/xlink" x="0px" y="0px"
	 viewBox="0 0 512 512" style="enable-background:new 0 0 512 512;" xml:space="preserve">
<style type="text/css">
	.st0{fill:#45AC34;}
</style>
<g>
	<path class="st0" d="M395.2,509.3c0.2-6.7,0-13.4,0.8-20c1.3-12.1,7.4-21.6,17.4-28.5c13.4-9.3,26.9-18.5,40.4-27.8
		c9.2-6.4,12-13.9,8.3-22.6c-3.5-8.3-12.1-12.9-21.2-11.3c-8.9,1.5-15.2,9.5-15.4,19.5c-0.1,2.3,0,4.7,0,7.4c-10,0-19.7,0-29.4,0
		c-4.2-27.5,13.9-52,39.7-56.4c19-3.3,35.2,2.6,47.1,17.8c11.9,15.1,14,32.1,6.4,49.9c-3.4,7.8-9,14-16,18.8
		c-10.7,7.4-21.4,14.7-33.2,22.9c18.4,0,35.6,0,53.3,0c0,10.5,0,20.4,0,30.3C460.7,509.3,428,509.3,395.2,509.3z"/>
	<path class="st0" d="M260.2,287.6c3.7-31.3,32.1-53.6,64.6-52.7c30.1,0.8,57.7,25.6,59.3,55.9c1.5,28.8,0.5,57.7,0.5,86.5
		c0,3.1-0.7,6.3-1.3,9.4c-6.5,30.4-35.9,52.1-66.2,49.2c-32.5-3.1-57.6-29.5-58-61.4c-0.2-13.2,0-26.4,0-39.5
		C259.3,335,258.4,303.2,260.2,287.6z M289.1,335.3c0,12.2,0,24.4,0,36.5c0.1,19,13.8,33.7,32,34.2c17.9,0.5,33.1-13.2,33.6-31.9
		c0.6-25.8,0.7-51.7,0-77.6c-0.5-19.1-15.6-32.2-34.3-31.6c-17.5,0.6-31.1,15.3-31.2,33.8C289,310.9,289.1,323.1,289.1,335.3z"/>
	<path class="st0" d="M240.6,297.6c-10.4,0-19.9,0-29.8,0c-0.4-2.5-0.6-4.9-1.2-7.3c-3.7-16.3-19.3-27.2-35.9-25.3
		c-16.1,1.8-28.7,15.7-28.9,32c-0.2,25.5-0.2,51.1,0,76.6c0.2,17.4,14,31.5,31.2,32.4c17,0.9,31.7-11.5,34.1-28.8
		c0.2-1.3,0.5-2.6,0.7-3.9c9.9,0,19.5,0,29.5,0c0.1,15.9-5.3,29.6-15.6,41.2c-17.5,19.9-44.9,26.7-69.3,17.4
		c-24.5-9.3-40.6-32.5-40.8-58.7c-0.1-25.2-0.1-50.4,0-75.6c0.1-32.7,25.1-60,57.1-62.7c32.9-2.8,62.1,19.7,67.8,52.2
		C240.2,290.5,240.3,293.8,240.6,297.6z"/>
	<path class="st0" d="M393.8,99c-3.4,0-6.8,0.1-10.2,0.4c-8.8-25.6-25-48.5-46.3-65.6c-25.2-20.1-56.9-31.2-89.2-31.2
		c-36.3,0-70.9,13.6-97.5,38.3c-23,21.4-38.2,49.4-43.6,79.9c-59.4,2.1-107,51-107,110.8c0,50.9,34.4,95.1,83.7,107.5v-30.3
		C51.2,297.4,29,266.7,29,231.6c0-45.1,36.7-81.8,81.8-81.8c2.4,0,5,0.1,7.5,0.3l14.6,1.3l1.2-14.6c2.3-28.6,15.1-55.1,36.2-74.6
		c21.2-19.7,48.8-30.5,77.7-30.5c26.1,0,50.7,8.6,71.1,24.8c19.8,15.8,34,37.9,39.9,62.4l3.3,13.6l13.7-2.8
		c5.8-1.2,11.8-1.8,17.7-1.8c49.1,0,89.1,40,89.1,89.1c0,40.4-27.3,75.6-65.7,86v30c54.9-11.1,94.7-59.7,94.7-115.8
		C512,152,459,99,393.8,99z"/>
</g>
</svg>
