<?xml version="1.0" encoding="utf-8"?>
<!-- Generator: Adobe Illustrator 25.0.1, SVG Export Plug-In . SVG Version: 6.00 Build 0)  -->
<svg version="1.1" id="Capa_1" xmlns="http://www.w3.org/2000/svg" xmlns:xlink="http://www.w3.org/1999/xlink" x="0px" y="0px"
	 viewBox="0 0 512 512" style="enable-background:new 0 0 512 512;" xml:space="preserve">
<style type="text/css">
	.st0{fill:url(#SVGID_1_);}
	.st1{fill:url(#SVGID_2_);}
	.st2{fill:url(#SVGID_3_);}
	.st3{fill:url(#SVGID_4_);}
	.st4{fill:url(#SVGID_5_);}
	.st5{fill:url(#SVGID_6_);}
	.st6{fill:url(#SVGID_7_);}
	.st7{fill:url(#SVGID_8_);}
	.st8{fill:url(#SVGID_9_);}
	.st9{fill:url(#SVGID_10_);}
	.st10{fill:url(#SVGID_11_);}
	.st11{fill:url(#SVGID_12_);}
	.st12{fill:url(#SVGID_13_);}
	.st13{fill:url(#SVGID_14_);}
</style>
<g>
	<linearGradient id="SVGID_1_" gradientUnits="userSpaceOnUse" x1="255.9501" y1="510.5423" x2="255.9501" y2="12.8458">
		<stop  offset="0" style="stop-color:#00783F"/>
		<stop  offset="1" style="stop-color:#43AA34"/>
	</linearGradient>
	<path class="st0" d="M420.9,255.9c0.2,90.5-74.2,165-164.9,165.1c-90.7,0-165.1-74.4-165-165c0.1-90.6,73.9-164.5,164.7-164.8
		C346.1,90.7,420.7,165,420.9,255.9z M235.5,292.8c-0.8,1.8-1.4,3.3-2.2,4.8c-6.6,13.2-13.5,26.4-19.6,39.8
		c-1.7,3.8-2.6,8.8-1.8,12.8c1.9,9.5,15.2,15.9,26.2,4.9C267,326,296,297.2,325,268.2c9.4-9.4,7.6-20.4-4.3-26.4
		c-13.2-6.7-26.5-13.3-39.7-19.9c-1.6-0.8-3.1-1.7-4.8-2.7c0.9-1.9,1.6-3.4,2.3-4.9c6.5-13.1,13.3-26.1,19.4-39.4
		c1.8-3.8,2.9-8.9,1.9-12.8c-2.9-12-16.6-14.6-26-5.2c-29.3,29.1-58.5,58.3-87.6,87.6c-8.7,8.8-6.9,19.9,4.1,25.5
		c13.3,6.8,26.8,13.4,40.1,20.1C232.2,290.9,233.7,291.8,235.5,292.8z"/>
	<linearGradient id="SVGID_2_" gradientUnits="userSpaceOnUse" x1="30.45" y1="510.5423" x2="30.45" y2="12.8458">
		<stop  offset="0" style="stop-color:#00783F"/>
		<stop  offset="1" style="stop-color:#43AA34"/>
	</linearGradient>
	<path class="st1" d="M30.3,271c-5,0-10,0.1-15,0c-8.9-0.2-15.4-6.7-15.3-15.1c0.1-8.2,6.5-14.6,15.1-14.8c10.2-0.2,20.3-0.2,30.5,0
		c8.9,0.1,15.4,6.7,15.3,15.1c-0.1,8.4-6.6,14.6-15.6,14.8C40.3,271.1,35.3,271,30.3,271z"/>
	<linearGradient id="SVGID_3_" gradientUnits="userSpaceOnUse" x1="255.8972" y1="510.5423" x2="255.8972" y2="12.8458">
		<stop  offset="0" style="stop-color:#00783F"/>
		<stop  offset="1" style="stop-color:#43AA34"/>
	</linearGradient>
	<path class="st2" d="M270.9,481.7c0,5,0.1,10,0,15c-0.3,8.9-6.8,15.4-15.2,15.2c-8.2-0.1-14.6-6.5-14.7-15.2
		c-0.2-10.2-0.2-20.3,0-30.5c0.1-8.9,6.8-15.4,15.2-15.2c8.2,0.1,14.5,6.5,14.7,15.2C271,471.3,270.9,476.5,270.9,481.7z"/>
	<linearGradient id="SVGID_4_" gradientUnits="userSpaceOnUse" x1="61.0258" y1="510.5423" x2="61.0258" y2="12.8458">
		<stop  offset="0" style="stop-color:#00783F"/>
		<stop  offset="1" style="stop-color:#43AA34"/>
	</linearGradient>
	<path class="st3" d="M89,151c0,10.7-10.9,18.4-20.6,13.7c-10.1-5-19.8-10.8-29.3-16.9c-6.4-4.1-7.7-12.5-4-19.1
		c3.8-6.6,12.1-9.8,18.9-6.2c9.9,5.1,19.4,10.9,28.9,16.7C87.1,141.7,89,146,89,151z"/>
	<linearGradient id="SVGID_5_" gradientUnits="userSpaceOnUse" x1="450.7791" y1="510.5423" x2="450.7791" y2="12.8458">
		<stop  offset="0" style="stop-color:#00783F"/>
		<stop  offset="1" style="stop-color:#43AA34"/>
	</linearGradient>
	<path class="st4" d="M422.8,151.2c0-5.4,2.1-9.8,6.7-12.6c9-5.4,18-10.7,27.2-15.7c7.4-4,15.9-1.3,19.9,5.6
		c4.1,7,2.3,15.6-4.9,20.1c-8.9,5.5-17.9,10.8-27.2,15.6C434.4,169.4,423,162.3,422.8,151.2z"/>
	<linearGradient id="SVGID_6_" gradientUnits="userSpaceOnUse" x1="143.4637" y1="510.5423" x2="143.4637" y2="12.8458">
		<stop  offset="0" style="stop-color:#00783F"/>
		<stop  offset="1" style="stop-color:#43AA34"/>
	</linearGradient>
	<path class="st5" d="M149,89.1c-3.5-0.1-7.9-2.3-10.6-6.9c-5.3-8.8-10.5-17.7-15.4-26.7c-4.1-7.6-1.4-16.2,5.7-20.2
		c7.1-3.9,15.5-1.9,20,5.3c5.4,8.8,10.6,17.6,15.4,26.8C169.4,77.6,162.2,89.2,149,89.1z"/>
	<linearGradient id="SVGID_7_" gradientUnits="userSpaceOnUse" x1="368.4478" y1="510.5423" x2="368.4478" y2="12.8458">
		<stop  offset="0" style="stop-color:#00783F"/>
		<stop  offset="1" style="stop-color:#43AA34"/>
	</linearGradient>
	<path class="st6" d="M360.6,89.1c-10.2-0.1-17.9-10.7-13.5-19.9c5-10.5,11-20.5,17.3-30.2c4.1-6.3,12.8-7.4,19.2-3.6
		c6.4,3.8,9.5,11.9,6,18.6c-5.2,10-11,19.7-16.9,29.3C370.1,87.5,365.6,89.2,360.6,89.1z"/>
	<linearGradient id="SVGID_8_" gradientUnits="userSpaceOnUse" x1="61.0683" y1="510.5423" x2="61.0683" y2="12.8458">
		<stop  offset="0" style="stop-color:#00783F"/>
		<stop  offset="1" style="stop-color:#43AA34"/>
	</linearGradient>
	<path class="st7" d="M89,363.5c0,3-2.5,7.4-7.2,10.2c-8.7,5.2-17.4,10.4-26.3,15.2c-7.7,4.1-16.3,1.6-20.3-5.5
		c-4.1-7.2-2-15.8,5.5-20.3C49.3,357.8,58,352.6,67,348C77.3,342.6,89,349.6,89,363.5z"/>
	<linearGradient id="SVGID_9_" gradientUnits="userSpaceOnUse" x1="143.8017" y1="510.5423" x2="143.8017" y2="12.8458">
		<stop  offset="0" style="stop-color:#00783F"/>
		<stop  offset="1" style="stop-color:#43AA34"/>
	</linearGradient>
	<path class="st8" d="M166.5,438c-1,2.8-1.8,5.7-3.2,8.2c-4.4,8-9,15.9-13.6,23.8c-5,8.4-13.6,11.1-21.2,6.8
		c-7.6-4.3-9.6-13.2-4.8-21.6c4.8-8.5,9.7-17.1,14.8-25.4c3.7-6,10.6-8.2,16.9-6.2C161.7,425.6,165.9,431.3,166.5,438z"/>
	<linearGradient id="SVGID_10_" gradientUnits="userSpaceOnUse" x1="368.4994" y1="510.5423" x2="368.4994" y2="12.8458">
		<stop  offset="0" style="stop-color:#00783F"/>
		<stop  offset="1" style="stop-color:#43AA34"/>
	</linearGradient>
	<path class="st9" d="M362.9,422.9c3.3,0,7.7,2.2,10.5,6.8c5.4,9,10.7,18,15.7,27.2c4,7.4,1.3,15.9-5.6,19.9c-7,4.1-15.6,2.2-20.1-5
		c-5.5-8.9-10.8-17.9-15.6-27.2C342.5,434.4,349.6,423,362.9,422.9z"/>
	<linearGradient id="SVGID_11_" gradientUnits="userSpaceOnUse" x1="256.05" y1="510.5423" x2="256.05" y2="12.8458">
		<stop  offset="0" style="stop-color:#00783F"/>
		<stop  offset="1" style="stop-color:#43AA34"/>
	</linearGradient>
	<path class="st10" d="M241.5,233.2c3.6,2.6,7.2,5.7,11.4,7.9c10.8,5.8,21.9,11.1,32.9,16.6c1.4,0.7,2.9,1.5,3.9,2.1
		c-6.7,6.7-13.3,13.3-19,19c-4.3-2.9-8.5-6.3-13.2-8.7c-11.7-6.2-23.6-11.9-35.1-17.7C229,245.7,235.5,239.2,241.5,233.2z"/>
	<linearGradient id="SVGID_12_" gradientUnits="userSpaceOnUse" x1="255.95" y1="510.5423" x2="255.95" y2="12.8458">
		<stop  offset="0" style="stop-color:#00783F"/>
		<stop  offset="1" style="stop-color:#43AA34"/>
	</linearGradient>
	<path class="st11" d="M259,61.1h-6.1c-6.7,0-12.1-5.4-12.1-12.1V12.2c0-6.7,5.4-12.1,12.1-12.1h6.1c6.7,0,12.1,5.4,12.1,12.1V49
		C271.1,55.7,265.7,61.1,259,61.1z"/>
	<linearGradient id="SVGID_13_" gradientUnits="userSpaceOnUse" x1="481.4" y1="510.5423" x2="481.4" y2="12.8458">
		<stop  offset="0" style="stop-color:#00783F"/>
		<stop  offset="1" style="stop-color:#43AA34"/>
	</linearGradient>
	<path class="st12" d="M450.9,259v-6.1c0-6.7,5.4-12.1,12.1-12.1h36.8c6.7,0,12.1,5.4,12.1,12.1v6.1c0,6.7-5.4,12.1-12.1,12.1H463
		C456.4,271.1,450.9,265.7,450.9,259z"/>
	<linearGradient id="SVGID_14_" gradientUnits="userSpaceOnUse" x1="450.4164" y1="510.5423" x2="450.4164" y2="12.8458">
		<stop  offset="0" style="stop-color:#00783F"/>
		<stop  offset="1" style="stop-color:#43AA34"/>
	</linearGradient>
	<path class="st13" d="M422.7,355.5l3.1-5.2c3.4-5.7,10.9-7.6,16.6-4.2l31.6,18.8c5.7,3.4,7.6,10.9,4.2,16.6l-3.1,5.2
		c-3.4,5.7-10.9,7.6-16.6,4.2l-31.6-18.8C421.1,368.7,419.2,361.3,422.7,355.5z"/>
</g>
</svg>
