<?xml version="1.0" encoding="utf-8"?>
<!-- Generator: Adobe Illustrator 23.0.6, SVG Export Plug-In . SVG Version: 6.00 Build 0)  -->
<svg version="1.1" id="Capa_1" xmlns="http://www.w3.org/2000/svg" xmlns:xlink="http://www.w3.org/1999/xlink" x="0px" y="0px"
	 viewBox="0 0 512 512" style="enable-background:new 0 0 512 512;" xml:space="preserve">
<style type="text/css">
	.st0{fill:#FFF;}
</style>
<g>
	<g>
		<path class="st0" d="M492,352c11,0,20-9,20-20V80c0-44.1-35.9-80-80-80H80C35.9,0,0,35.9,0,80v352c0,44.1,35.9,80,80,80h352
			c44.1,0,80-35.9,80-80c0-11-9-20-20-20s-20,9-20,20c0,22.1-17.9,40-40,40H327V298h45c11,0,20-9,20-20s-9-20-20-20h-45v-55
			c0-22.1,17.9-40,40-40h10c11,0,20-9,20-20s-9-20-20-20h-10c-44.1,0-80,35.9-80,80v55h-45c-11,0-20,9-20,20s9,20,20,20h45v174H80
			c-22.1,0-40-17.9-40-40V80c0-22.1,17.9-40,40-40h352c22.1,0,40,17.9,40,40v252C472,343,481,352,492,352z"/>
	</g>
</g>
</svg>
