<?xml version="1.0" encoding="utf-8"?>
<!-- Generator: Adobe Illustrator 25.0.1, SVG Export Plug-In . SVG Version: 6.00 Build 0)  -->
<svg version="1.1" id="Capa_1" xmlns="http://www.w3.org/2000/svg" xmlns:xlink="http://www.w3.org/1999/xlink" x="0px" y="0px"
	 viewBox="0 0 512 512" style="enable-background:new 0 0 512 512;" xml:space="preserve">
<style type="text/css">
	.st0{fill:#FFF;}
</style>
<path class="st0" d="M140,423h-30c-11,0-20-9-20-20V217c0-11,9-20,20-20h30c11,0,20,9,20,20v186C160,414,151.1,423,140,423z
	 M167,125c0-22.6-18.4-41-41-41c-22.7,0-41,18.4-41,41c0,22.6,18.3,41,41,41C148.6,166,167,147.6,167,125z M422,403V298.7
	C422,238,409.2,193,338.3,193c-34.1,0-56.9,17-66.2,34.7H272V217c0-11-9-20-20-20h-28c-11,0-20,9-20,20v186c0,11,9,20,20,20h28
	c11,0,20-9,20-20v-92.2c0-29.4,7.5-57.9,43.9-57.9c35.9,0,37.1,33.6,37.1,59.7V403c0,11,9,20,20,20h29C413,423,422,414,422,403z
	 M512,432c0-11-9-20-20-20s-20,9-20,20c0,22.1-17.9,40-40,40H80c-22.1,0-40-17.9-40-40V80c0-22.1,17.9-40,40-40h352
	c22.1,0,40,17.9,40,40v251c0,11,9,20,20,20s20-9,20-20V80c0-44.1-35.9-80-80-80H80C35.9,0,0,35.9,0,80v352c0,44.1,35.9,80,80,80h352
	C476.1,512,512,476.1,512,432z"/>
</svg>
