<?xml version="1.0" encoding="utf-8"?>
<!-- Generator: Adobe Illustrator 25.0.1, SVG Export Plug-In . SVG Version: 6.00 Build 0)  -->
<svg version="1.1" id="Capa_1" xmlns="http://www.w3.org/2000/svg" xmlns:xlink="http://www.w3.org/1999/xlink" x="0px" y="0px"
	 viewBox="0 0 512 512" style="enable-background:new 0 0 512 512;" xml:space="preserve">
<style type="text/css">
	.st0{fill:url(#SVGID_1_);}
	.st1{fill:url(#SVGID_2_);}
	.st2{fill:url(#SVGID_3_);}
	.st3{fill:url(#SVGID_4_);}
	.st4{fill:url(#SVGID_5_);}
	.st5{fill:url(#SVGID_6_);}
	.st6{fill:url(#SVGID_7_);}
	.st7{fill:url(#SVGID_8_);}
	.st8{fill:url(#SVGID_9_);}
	.st9{fill:url(#SVGID_10_);}
	.st10{fill:url(#SVGID_11_);}
	.st11{fill:url(#SVGID_12_);}
	.st12{fill:url(#SVGID_13_);}
	.st13{fill:url(#SVGID_14_);}
	.st14{fill:url(#SVGID_15_);}
</style>
<g>
	<linearGradient id="SVGID_1_" gradientUnits="userSpaceOnUse" x1="256.1129" y1="511.8725" x2="256.1129" y2="10.3565">
		<stop  offset="0" style="stop-color:#00783F"/>
		<stop  offset="1" style="stop-color:#43AA34"/>
	</linearGradient>
	<path class="st0" d="M152.1,512c-0.5-0.4-1-0.8-1.5-1.1c-7.2-3.6-10.7-10.2-9.2-17c1.7-7.3,7.6-11.9,15.7-11.9
		c12.3-0.1,24.6,0,37.4,0c1.8-7.3,3.7-14.5,5.5-21.8c37.5,0,74.7,0,112.2,0c1.8,7.2,3.6,14.2,5.5,21.8c12.5,0,24.9,0,37.4,0
		c6,0,10.7,2.2,13.9,7.3c4.3,7,2,16.1-5.1,20.5c-1.2,0.8-2.5,1.5-3.7,2.2C290.7,512,221.4,512,152.1,512z"/>
	<linearGradient id="SVGID_2_" gradientUnits="userSpaceOnUse" x1="56.8" y1="511.8725" x2="56.8" y2="10.3565">
		<stop  offset="0" style="stop-color:#00783F"/>
		<stop  offset="1" style="stop-color:#43AA34"/>
	</linearGradient>
	<path class="st1" d="M0.1,411c3.3-12.5,6.7-25,9.9-37.5c1.8-6.8,3.3-13.6,5.2-20.3c0.4-1.3,2.2-3.1,3.4-3.1
		c31.2-0.1,62.3-0.1,93.5,0c0.3,0,0.6,0.3,1.4,0.6c-3.2,26-6.5,52.3-9.8,79c-1.9,0.1-3.6,0.2-5.4,0.2c-26.2,0-52.3-0.3-78.5,0.2
		C10.6,430.2,4,427.4,0.1,419C0.1,416.3,0.1,413.7,0.1,411z"/>
	<linearGradient id="SVGID_3_" gradientUnits="userSpaceOnUse" x1="256.0359" y1="511.8725" x2="256.0359" y2="10.3565">
		<stop  offset="0" style="stop-color:#00783F"/>
		<stop  offset="1" style="stop-color:#43AA34"/>
	</linearGradient>
	<path class="st2" d="M256,200c-25,0-50,0-75,0c-10.1,0-15-3.9-17.4-13.6c-13.3-53.6,25.3-109.2,80-115.5
		c51.5-5.9,95.9,26.5,105.9,77.4c2.5,12.6,2,25.2-0.9,37.7c-2.3,10.1-7.3,14-17.6,14C306,200,281,200,256,200z"/>
	<linearGradient id="SVGID_4_" gradientUnits="userSpaceOnUse" x1="187.3" y1="511.8725" x2="187.3" y2="10.3565">
		<stop  offset="0" style="stop-color:#00783F"/>
		<stop  offset="1" style="stop-color:#43AA34"/>
	</linearGradient>
	<path class="st3" d="M143.8,350.2c32.5,0,64.5,0,96.9,0c0,26.4,0,52.7,0,79.5c-35.2,0-70.6,0-106.8,0
		C137.2,403.1,140.5,376.7,143.8,350.2z"/>
	<linearGradient id="SVGID_5_" gradientUnits="userSpaceOnUse" x1="324.85" y1="511.8725" x2="324.85" y2="10.3565">
		<stop  offset="0" style="stop-color:#00783F"/>
		<stop  offset="1" style="stop-color:#43AA34"/>
	</linearGradient>
	<path class="st4" d="M271.4,350.1c32.3,0,64.3,0,96.9,0c3.3,26.4,6.6,52.8,10,79.5c-35.7,0-71.1,0-106.9,0
		C271.4,403.4,271.4,377,271.4,350.1z"/>
	<linearGradient id="SVGID_6_" gradientUnits="userSpaceOnUse" x1="455.2496" y1="511.8725" x2="455.2496" y2="10.3565">
		<stop  offset="0" style="stop-color:#00783F"/>
		<stop  offset="1" style="stop-color:#43AA34"/>
	</linearGradient>
	<path class="st5" d="M398.6,350.2c2.2-0.1,3.6-0.2,5.1-0.2c29.3,0,58.7,0,88-0.1c3.4,0,4.9,0.7,5.7,4.3c4.5,18.9,9.4,37.8,14,56.7
		c2.4,10-4.1,18.9-14.2,19c-28.8,0.2-57.7,0.1-86.5,0.1c-0.6,0-1.3-0.2-2.2-0.4C405.2,403.3,401.9,377.1,398.6,350.2z"/>
	<linearGradient id="SVGID_7_" gradientUnits="userSpaceOnUse" x1="75.25" y1="511.8725" x2="75.25" y2="10.3565">
		<stop  offset="0" style="stop-color:#00783F"/>
		<stop  offset="1" style="stop-color:#43AA34"/>
	</linearGradient>
	<path class="st6" d="M117.3,319.8c-31.6,0-62.5,0-93.9,0c3.7-15,7.4-29.6,11-44.3c1.9-7.7,3.8-15.5,5.8-23.2
		c2-7.8,7.3-12.2,15-12.2c23.1-0.1,46.3,0,69.4,0c0.6,0,1.3,0.1,2.5,0.3C124,266.8,120.7,293.1,117.3,319.8z"/>
	<linearGradient id="SVGID_8_" gradientUnits="userSpaceOnUse" x1="436.65" y1="511.8725" x2="436.65" y2="10.3565">
		<stop  offset="0" style="stop-color:#00783F"/>
		<stop  offset="1" style="stop-color:#43AA34"/>
	</linearGradient>
	<path class="st7" d="M488.5,319.8c-31.4,0-62.3,0-93.7,0c-3.3-26.5-6.6-52.9-10-79.8c2.1,0,3.7,0,5.3,0c21.5,0,43,0,64.4,0
		c10.4,0,15.1,3.7,17.6,13.9c5.2,20.6,10.4,41.3,15.6,61.9C488,317,488.2,318.1,488.5,319.8z"/>
	<linearGradient id="SVGID_9_" gradientUnits="userSpaceOnUse" x1="194.2" y1="511.8725" x2="194.2" y2="10.3565">
		<stop  offset="0" style="stop-color:#00783F"/>
		<stop  offset="1" style="stop-color:#43AA34"/>
	</linearGradient>
	<path class="st8" d="M240.8,240.3c0,26.7,0,52.9,0,79.4c-31,0-61.7,0-93.2,0c3.3-26.5,6.6-52.8,9.9-79.4
		C185.3,240.3,212.9,240.3,240.8,240.3z"/>
	<linearGradient id="SVGID_10_" gradientUnits="userSpaceOnUse" x1="317.95" y1="511.8725" x2="317.95" y2="10.3565">
		<stop  offset="0" style="stop-color:#00783F"/>
		<stop  offset="1" style="stop-color:#43AA34"/>
	</linearGradient>
	<path class="st9" d="M271.4,240.2c27.8,0,55.2,0,83.2,0c3.3,26.5,6.6,52.8,9.9,79.5c-31.2,0-62,0-93.1,0
		C271.4,293.4,271.4,267,271.4,240.2z"/>
	<linearGradient id="SVGID_11_" gradientUnits="userSpaceOnUse" x1="156.4236" y1="511.8725" x2="156.4236" y2="10.3565">
		<stop  offset="0" style="stop-color:#00783F"/>
		<stop  offset="1" style="stop-color:#43AA34"/>
	</linearGradient>
	<path class="st10" d="M156.3,86.6c-5.1-5.2-10.9-10.9-16.6-16.7c-6.2-6.5-6.3-15.5-0.5-21.5c5.9-6,15-6,21.5,0.1
		c6,5.7,11.8,11.7,17.2,17C170.7,72.6,163.7,79.5,156.3,86.6z"/>
	<linearGradient id="SVGID_12_" gradientUnits="userSpaceOnUse" x1="356.0459" y1="511.8725" x2="356.0459" y2="10.3565">
		<stop  offset="0" style="stop-color:#00783F"/>
		<stop  offset="1" style="stop-color:#43AA34"/>
	</linearGradient>
	<path class="st11" d="M355,86.2c-6.6-6.7-13.4-13.7-20.2-20.7c5.2-5.3,11.2-12,17.8-18c5.8-5.3,14.5-4.6,20,0.6
		c5.5,5.3,6.5,14.2,1.2,19.9C367.7,74.8,360.7,80.7,355,86.2z"/>
	<linearGradient id="SVGID_13_" gradientUnits="userSpaceOnUse" x1="400.853" y1="511.8725" x2="400.853" y2="10.3565">
		<stop  offset="0" style="stop-color:#00783F"/>
		<stop  offset="1" style="stop-color:#43AA34"/>
	</linearGradient>
	<path class="st12" d="M380.7,179.8c0-10,0-19.5,0-29.6c9.3,0,18.9-0.6,28.3,0.2c7.3,0.6,12.2,7.8,12,14.9
		c-0.2,7.1-5.6,13.8-12.8,14.3C399,180.3,389.8,179.8,380.7,179.8z"/>
	<linearGradient id="SVGID_14_" gradientUnits="userSpaceOnUse" x1="111.35" y1="511.8725" x2="111.35" y2="10.3565">
		<stop  offset="0" style="stop-color:#00783F"/>
		<stop  offset="1" style="stop-color:#43AA34"/>
	</linearGradient>
	<path class="st13" d="M131.5,150.2c0,10,0,19.6,0,29.6c-9.1,0-18.6,0.5-27.9-0.2c-7.2-0.5-12.4-7.5-12.4-14.6s5.2-14.1,12.4-14.6
		C112.8,149.7,122.3,150.2,131.5,150.2z"/>
	<linearGradient id="SVGID_15_" gradientUnits="userSpaceOnUse" x1="256.047" y1="511.8725" x2="256.047" y2="10.3565">
		<stop  offset="0" style="stop-color:#00783F"/>
		<stop  offset="1" style="stop-color:#43AA34"/>
	</linearGradient>
	<path class="st14" d="M271,40.4c-10.2,0-19.8,0-29.8,0c0-9.1-0.5-18.4,0.1-27.6c0.5-7.4,7.5-12.9,14.8-12.8
		c7.5,0.1,14.3,5.9,14.7,13.5C271.3,22.4,271,31.4,271,40.4z"/>
</g>
</svg>
