<?xml version="1.0" encoding="utf-8"?>
<!-- Generator: Adobe Illustrator 25.0.1, SVG Export Plug-In . SVG Version: 6.00 Build 0)  -->
<svg version="1.1" id="Capa_1" xmlns="http://www.w3.org/2000/svg" xmlns:xlink="http://www.w3.org/1999/xlink" x="0px" y="0px"
	 viewBox="0 0 512 512" style="enable-background:new 0 0 512 512;" xml:space="preserve">
<style type="text/css">
	.st0{fill:#45AC34;}
</style>
<path class="st0" d="M0,280c2.7-12.1,5.5-24.3,7.9-36.4C22.7,171.5,37.3,99.4,52,27.3c1.8-9,7.2-13.4,16.5-13.4c125,0,250,0,375,0
	c9.6,0,14.7,4.3,16.7,13.8c17.2,84.1,34.3,168.3,51.4,252.4c2.2,10.9-4.5,18.9-15.9,18.9c-63.7,0-127.3,0-191,0c-2,0-3.9,0-6.5,0
	c2.1,24.8,4.1,49.1,6.1,73.1c7.5,1,14.7,1.3,21.6,2.9c31.4,7.3,53.9,35.5,54.2,67.6c0.2,13.2,0.1,26.3,0,39.5
	c-0.1,9.7-6.2,15.9-16,15.9c-72,0-144,0-216,0c-9.8,0-16.2-6.1-16.1-15.8c0.1-16.5-0.8-33.1,1.1-49.4c4.1-33.8,34.2-59.4,68.3-59.9
	c2,0,3.9,0,6.3,0c2.1-24.7,4.1-49,6.1-73.9c-2.5,0-4.4,0-6.4,0c-62.7,0-125.3-0.1-188,0.1c-9.2,0-15.8-2.6-19.6-11.2
	C0,285.3,0,282.7,0,280z M350.1,467.9c0-8.4,0.1-16.4,0-24.3c-0.4-22.5-18-40.4-40.4-40.5c-35.7-0.2-71.3-0.2-107,0
	c-19.9,0.1-36.7,13.7-39.6,33.4c-1.5,10.2-0.3,20.8-0.3,31.4C224.8,467.9,287.1,467.9,350.1,467.9z M320.3,268.9
	c-1.6-23.3-3.1-46-4.7-68.7c-40,0-79.4,0-119.2,0c-1.5,23-3.1,45.8-4.6,68.7C235,268.9,277.3,268.9,320.3,268.9z M478.7,268.9
	c-4.7-23.2-9.4-46-14-68.6c-39.9,0-79.2,0-118.9,0c1.6,23.1,3.1,45.8,4.7,68.6C393.3,268.9,435.6,268.9,478.7,268.9z M47.4,200.1
	c-4.7,23.1-9.3,45.8-13.9,68.6c43,0,85.5,0,128.2,0c1.5-23,3.1-45.7,4.6-68.6C126.3,200.1,87.1,200.1,47.4,200.1z M313.6,169.6
	c-1.2-18.2-2.4-35.9-3.6-53.5c-36.2,0-71.8,0-107.8,0c-1.2,17.9-2.4,35.5-3.6,53.5C237.1,169.6,274.9,169.6,313.6,169.6z
	 M168.4,169.6c1.2-17.9,2.4-35.6,3.6-53.7c-8.3,0-15.9,0-23.5,0c-26.2,0-52.3,0.1-78.5-0.1c-4.4,0-6.2,1.2-6.7,5.5
	c-0.6,5.1-2,10.1-3,15.2c-2.2,10.9-4.4,21.8-6.6,33.1C92,169.6,129.8,169.6,168.4,169.6z M458,169.6c-0.1-1.4,0-2.5-0.3-3.6
	c-3.1-15.2-6.4-30.3-9.2-45.5c-0.7-3.9-2.2-4.7-5.8-4.7c-32.7,0.1-65.3,0.1-98,0.1c-1.4,0-2.9,0.2-4.7,0.3c1.2,18,2.5,35.7,3.7,53.4
	C382.2,169.6,420,169.6,458,169.6z M204.2,85.5c34.8,0,69.1,0,103.7,0c-1-14-1.9-27.5-2.9-41.2c-32.9,0-65.4,0-98,0
	C206.1,58.2,205.2,71.8,204.2,85.5z M174.1,85.6c1-13.9,1.9-27.6,2.9-41.4c-32.9,0-65.3,0-97.8,0c-2.8,13.9-5.6,27.5-8.4,41.4
	C105.4,85.6,139.5,85.6,174.1,85.6z M433,44.3c-32.9,0-65.3,0-97.8,0c1,14,1.9,27.6,2.9,41.2c34.6,0,68.8,0,103.3,0
	C438.5,71.5,435.8,58,433,44.3z M244,299.3c-2,24.6-4.1,48.9-6.1,73.3c12.4,0,24.1,0,36.2,0c-2.1-24.6-4.1-48.9-6.1-73.3
	C259.9,299.3,252.3,299.3,244,299.3z"/>
</svg>
