<?xml version="1.0" encoding="utf-8"?>
<!-- Generator: Adobe Illustrator 25.0.1, SVG Export Plug-In . SVG Version: 6.00 Build 0)  -->
<svg version="1.1" id="Capa_1" xmlns="http://www.w3.org/2000/svg" xmlns:xlink="http://www.w3.org/1999/xlink" x="0px" y="0px"
	 viewBox="0 0 512 512" style="enable-background:new 0 0 512 512;" xml:space="preserve">
<style type="text/css">
	.st0{fill:#45AC34;}
</style>
<path class="st0" d="M150.2,10.4c7.8-10.1,23.2-10.1,30.9,0c0,0.1,0.1,0.1,0.1,0.2c23.8,31.6,47.3,63.4,70.9,95.1
	c1,1.3,2,2.5,3.3,4.1c1.3-1.6,2.3-2.8,3.3-4.1c23.6-31.7,47.1-63.5,70.9-95.1c0.8-1.1,1.7-2.2,2.7-3.3c7.2-8.1,20.1-7.9,26.6,0.7
	l0.1,0.1c28.8,38.4,57.4,77,86.1,115.6c4.1,5.6,6.5,11.3,3.2,18c-3.4,6.8-9.5,8.7-16.7,8.5c-5.9-0.2-11.8,0-18.3,0
	c1.4,2.2,2.2,3.6,3.1,5c16.7,25,33.4,50.1,50,75.1c3.5,5.3,7.2,10.4,10.5,15.8c7,11.4,0.4,23.5-13,23.9c-5,0.1-10,0-15,0
	c-3.2,0-6.3,0-10.3,0c22.3,30.9,44,60.8,65.5,90.8c0.4,0.6,0.9,1.3,1.4,2.1c7.3,11.8-1.1,27.1-15,27c-0.1,0-0.2,0-0.3,0
	c-31.6-0.4-63.2-0.1-94.7-0.1c-1.7,0-3.5,0-5.1,0v90.8c2,0,3.8,0,5.6,0c31.6,0,63.2,0.2,94.7-0.1c10.2-0.1,17.5,3,21.2,14
	c0,0.8,0,1.5,0,2.3c-3.7,11-11,14-21.2,14c-158.3-0.2-316.6-0.1-474.8-0.1c-0.6,0-1.2,0-1.8-0.1c-6.5-0.7-11-3.9-13.2-10.1
	c-3.6-10.2,3.9-19.7,15.6-19.8c32.9-0.1,65.8,0,98.8,0c1.7,0,3.5,0,5.2,0v-90.8c-4.9,0-9.5,0-14.1,0c-29.9,0-59.9,0-89.8,0
	c-9.9,0-17.2-6.6-16.3-15.4c0.4-3.7,2.3-7.7,4.5-10.8c21.3-29.7,42.7-59.3,64.1-89c0.9-1.3,1.7-2.6,3-4.6c-8.9,0-17,0.1-25.1,0
	c-8.4-0.1-15.1-5-15.4-12.6c-0.2-4.4,1.5-9.6,4-13.3c19.5-29.8,39.3-59.3,59-88.9c0.9-1.4,1.8-2.9,3.1-5c-7.9,0-14.9,0.3-21.9-0.1
	c-12.2-0.6-18.5-12.6-12.2-23.1c0.8-1.3,1.7-2.5,2.6-3.7c27.9-37.5,55.7-75,83.7-112.3C149.9,10.8,150,10.6,150.2,10.4z M257.1,240
	c-1.3-2.2-2.2-3.7-3.2-5.2c-19.6-29.5-39.2-58.9-58.9-88.3c-3.8-5.7-6.1-11.5-2.6-18.1c3.6-6.8,9.8-8.4,16.9-8.1
	c5.1,0.2,10.2,0,16.3,0c-20.3-27.3-39.9-53.7-60-80.7c-20.1,27-39.7,53.4-60,80.7c7.5,0,13.9-0.3,20.3,0.1
	c11.3,0.6,17.8,11.3,13,21.4c-0.8,1.8-2,3.5-3.1,5.1c-19.5,29.3-39,58.6-58.6,88c-1,1.5-1.9,3-3.2,5.2c9.5,0,18.2-0.2,27,0
	c8.7,0.2,15.6,6.5,15,14.6c-0.3,4-2.2,8.4-4.6,11.7C90.4,296,69,325.5,47.7,355c-1,1.4-1.9,2.8-3,4.5h241.1
	c-1.4-2.1-2.5-3.8-3.6-5.3c-21-29.5-42.1-59-63.2-88.4c-4-5.6-5.7-11.4-2.3-17.7c3.2-6.1,8.8-8.1,15.5-8
	C240.2,240.1,248.3,240,257.1,240z M466.5,359.8c-1.9-2.7-3.2-4.5-4.5-6.4c-21.1-29.2-42.2-58.5-63.4-87.7c-4-5.5-5.7-11.3-2.3-17.7
	c3.2-6.1,8.7-8.2,15.4-8.1c8.1,0.1,16.2,0,25,0c-1.3-2.2-2.2-3.7-3.2-5.2c-20.1-30.1-40.1-60.2-60.2-90.4c-0.3-0.5-0.7-1-1-1.6
	c-5.7-10.6,0.8-22.1,13-22.6c6.3-0.2,12.7,0,19.9,0c-20.4-27.5-40.1-53.9-60.1-80.7c-20.2,27.1-39.8,53.5-60,80.7
	c6.3,0,11.5,0.1,16.8,0c7-0.2,12.9,1.5,16.4,8c3.6,6.6,1.3,12.4-2.5,18.1c-13.2,19.6-26.1,39.3-39.4,58.8c-2.7,3.9-2.4,6.3,0.2,9.9
	c7.1,10.1,13.8,20.4,20.5,30.6c3.3,5,4.3,10.4,1.3,16c-3,5.7-8,8.1-14.4,8.2c-3.8,0-7.6,0-11.5,0c-4.3,0-8.7,0-13.9,0
	c21.4,29.9,42,58.9,62.8,87.7c0.8,1.2,3,2,4.6,2c9,0.2,18,0.1,26.9,0.1C390.5,359.8,427.9,359.8,466.5,359.8z M210.9,389.9v90.2
	h89.2v-90.2L210.9,389.9L210.9,389.9z M151,389.9v90.2h29.3v-90.2L151,389.9L151,389.9z M359.9,480.2V390h-29.4v90.2H359.9z
	 M255.4,183.1c7.5-11.2,14.4-21.6,21.7-32.6h-43.4C241,161.5,248,171.9,255.4,183.1z"/>
</svg>
