<?xml version="1.0" encoding="utf-8"?>
<!-- Generator: Adobe Illustrator 25.0.1, SVG Export Plug-In . SVG Version: 6.00 Build 0)  -->
<svg version="1.1" id="Capa_1" xmlns="http://www.w3.org/2000/svg" xmlns:xlink="http://www.w3.org/1999/xlink" x="0px" y="0px"
	 viewBox="0 0 512 512" style="enable-background:new 0 0 512 512;" xml:space="preserve">
<style type="text/css">
	.st0{fill:#45ac34;}
</style>
<path class="st0" d="M510.7,438.7c-12-57.7-43.8-110.1-89.5-147.7c-21.6-17.8-45.9-31.8-71.8-41.8c-0.6-0.3-1.3-0.6-1.9-0.8
	c-3.3-1.2-6.6-2.4-10-3.5C370.5,220,392,180.5,392,136c0-54.9-32.7-102.3-79.7-123.8c-0.4-0.2-0.8-0.3-1.1-0.5
	c-6.8-3-13.9-5.5-21.2-7.4C279.1,1.5,267.7,0,256,0c-75,0-136,61-136,136c0,44.5,21.5,84,54.6,108.9c-3.4,1.1-6.7,2.3-10,3.5
	c-0.7,0.2-1.3,0.5-1.9,0.8c-25.9,9.9-50.2,24-71.8,41.8c-45.7,37.6-77.5,90.1-89.5,147.7c-3.8,18.1,0.7,36.6,12.4,50.9
	c11.6,14.2,28.7,22.4,47,22.4h70.8c11,0,20-9,20-20s-9-20-20-20H60.7c-8.5,0-13.7-4.8-16-7.6c-4-4.9-5.5-11.3-4.2-17.5
	c20.8-99.8,108.8-172.6,210.4-175c0.7,0,1.4,0,2.1,0.1c0.1,0,0.3,0,0.4,0c0.7,0,1.4,0,2.1,0c0.1,0,0.3,0,0.4,0c1.7,0,3.4,0,5.1-0.1
	c101.6,2.4,189.7,75.2,210.4,175c1.3,6.2-0.2,12.6-4.2,17.5c-2.3,2.8-7.5,7.6-16,7.6h-70.8c-11,0-20,9-20,20s9,20,20,20h70.8
	c18.3,0,35.5-8.2,47-22.4C510,475.3,514.5,456.8,510.7,438.7z M290,225.8c-1.4,0.5-2.8,1-4.2,1.5c-0.2,0.1-0.4,0.1-0.6,0.2
	c-0.5,0.2-1.1,0.3-1.6,0.5c-0.3,0.1-0.5,0.2-0.8,0.2c-0.5,0.1-0.9,0.3-1.4,0.4c-0.4,0.1-0.8,0.2-1.2,0.3c-0.4,0.1-0.7,0.2-1.1,0.3
	c-0.5,0.1-0.9,0.2-1.4,0.3c-0.3,0.1-0.6,0.1-0.9,0.2c-0.5,0.1-1,0.2-1.5,0.3c-0.3,0.1-0.5,0.1-0.8,0.2c-0.6,0.1-1.1,0.2-1.7,0.3
	c-0.2,0-0.4,0.1-0.6,0.1c-0.6,0.1-1.1,0.2-1.7,0.3c-0.2,0-0.4,0.1-0.6,0.1c-0.7,0.1-1.3,0.2-2,0.3c-0.1,0-0.2,0-0.3,0
	c-2.3,0.3-4.7,0.5-7.1,0.6c-1.5,0-3,0-4.5,0c-0.1,0-0.2,0-0.2,0c-1.6,0-3.1,0-4.7,0.1c-7.1-0.3-14.1-1.5-20.7-3.3
	c-0.1,0-0.2-0.1-0.3-0.1c-0.6-0.2-1.3-0.4-1.9-0.6c-0.2-0.1-0.4-0.1-0.6-0.2c-0.5-0.2-1.1-0.3-1.6-0.5c-0.3-0.1-0.5-0.2-0.8-0.3
	c-0.5-0.2-0.9-0.3-1.4-0.5c-0.4-0.1-0.8-0.3-1.2-0.4c-0.3-0.1-0.7-0.2-1-0.4c-0.4-0.2-0.9-0.3-1.3-0.5c-0.3-0.1-0.5-0.2-0.8-0.3
	c-0.4-0.2-0.9-0.4-1.3-0.5c-0.3-0.1-0.5-0.2-0.8-0.3c-0.5-0.2-0.9-0.4-1.3-0.6c-0.2-0.1-0.5-0.2-0.7-0.3c-0.6-0.3-1.1-0.5-1.7-0.8
	c-0.1-0.1-0.2-0.1-0.4-0.2c-0.6-0.3-1.2-0.6-1.7-0.9c-0.1,0-0.2-0.1-0.3-0.1c-0.6-0.3-1.1-0.6-1.7-0.9c-0.1-0.1-0.2-0.1-0.3-0.2
	c-0.6-0.4-1.3-0.7-1.9-1.1l0,0c-0.6-0.3-1.1-0.7-1.7-1c-0.1,0-0.2-0.1-0.2-0.1C178.3,200.8,160,170.5,160,136c0-52.9,43.1-96,96-96
	c8.3,0,16.3,1.1,24,3c41.4,10.7,72,48.3,72,93C352,176.9,326.2,212,290,225.8C290.1,225.8,290,225.8,290,225.8z"/>
</svg>
