<?xml version="1.0" encoding="utf-8"?>
<!-- Generator: Adobe Illustrator 25.0.1, SVG Export Plug-In . SVG Version: 6.00 Build 0)  -->
<svg version="1.1" id="Capa_1" xmlns="http://www.w3.org/2000/svg" xmlns:xlink="http://www.w3.org/1999/xlink" x="0px" y="0px"
	 viewBox="0 0 512 512" style="enable-background:new 0 0 512 512;" xml:space="preserve">
<style type="text/css">
	.st0{fill:#FFFFFF;}
</style>
<g>
	<g>
		<path class="st0" d="M256,80c-68.9,0-125,56.1-125,125s56.1,125,125,125c11.6,0,23.2-1.6,34.3-4.8c10.6-3,16.8-14.1,13.8-24.7
			c-3-10.6-14.1-16.8-24.7-13.8c-7.5,2.1-15.4,3.2-23.3,3.2c-46.9,0-85-38.1-85-85s38.1-85,85-85s85,38.1,85,85
			c0,8.3-1.2,16.6-3.6,24.5c-3.2,10.6,2.8,21.7,13.4,24.9c10.6,3.2,21.7-2.8,24.9-13.4c3.5-11.6,5.3-23.7,5.3-36
			C381,136.1,324.9,80,256,80z"/>
	</g>
</g>
<g>
	<g>
		<path class="st0" d="M400.9,60C362.2,21.3,310.7,0,256,0c-54.7,0-106.2,21.3-144.9,60C72.4,98.6,51.1,150.1,51,204.8
			c0,39.9,11.1,77.2,33.8,114.3c19.7,32.1,45.3,60.1,72.3,89.8c26.5,29.1,54,59.1,75.9,93.8c3.7,5.8,10,9.3,16.9,9.3h12
			c6.9,0,13.2-3.5,16.9-9.3c21.9-34.7,49.4-64.7,75.9-93.8c27.1-29.6,52.6-57.7,72.3-89.8C449.9,282,461,244.7,461,204.8
			C460.9,150.1,439.6,98.6,400.9,60z M325.3,381.9c-23.6,25.8-47.9,52.4-69.3,83c-21.4-30.6-45.7-57.2-69.3-83
			C135.4,325.7,91.1,277.2,91,204.8C91.1,113.9,165.1,40,256,40s164.9,73.9,165,164.8C420.9,277.2,376.6,325.7,325.3,381.9z"/>
	</g>
</g>
</svg>
